<svg xmlns="http://www.w3.org/2000/svg" width="800" height="230" viewBox="0 0 800 230" role="img" aria-labelledby="title"><title id="title">C / C++ / Linux / MCU / FreeRTOS / OpenCV / Qt / CMake / Git / ESP32</title><rect x="30" y="12" width="100" height="72" rx="16" fill="#376AB1"/><text x="80" y="59" font-size="28" fill="white" font-weight="700" text-anchor="middle" font-family="'Segoe UI','Microsoft YaHei','Noto Sans CJK SC',Arial,sans-serif">C</text><text x="80" y="107" font-size="14" fill="#F5EDF4" font-weight="600" text-anchor="middle" font-family="'Segoe UI','Microsoft YaHei','Noto Sans CJK SC',Arial,sans-serif">C</text><rect x="185" y="12" width="100" height="72" rx="16" fill="#244879"/><text x="235" y="59" font-size="28" fill="white" font-weight="700" text-anchor="middle" font-family="'Segoe UI','Microsoft YaHei','Noto Sans CJK SC',Arial,sans-serif">C++</text><text x="235" y="107" font-size="14" fill="#F5EDF4" font-weight="600" text-anchor="middle" font-family="'Segoe UI','Microsoft YaHei','Noto Sans CJK SC',Arial,sans-serif">C++</text><rect x="340" y="12" width="100" height="72" rx="16" fill="#47414B"/><text x="390" y="59" font-size="22" fill="white" font-weight="700" text-anchor="middle" font-family="'Segoe UI','Microsoft YaHei','Noto Sans CJK SC',Arial,sans-serif">Linux</text><text x="390" y="107" font-size="14" fill="#F5EDF4" font-weight="600" text-anchor="middle" font-family="'Segoe UI','Microsoft YaHei','Noto Sans CJK SC',Arial,sans-serif">Linux</text><rect x="495" y="12" width="100" height="72" rx="16" fill="#C47A49"/><rect x="526" y="29" width="38" height="38" rx="5" fill="none" stroke="white" stroke-width="3"/><path d="M533 22v7m0 38v7M519 36h7m38 0h7" stroke="white" stroke-width="3"/><path d="M545 22v7m0 38v7M519 48h7m38 0h7" stroke="white" stroke-width="3"/><path d="M557 22v7m0 38v7M519 60h7m38 0h7" stroke="white" stroke-width="3"/><text x="545" y="107" font-size="14" fill="#F5EDF4" font-weight="600" text-anchor="middle" font-family="'Segoe UI','Microsoft YaHei','Noto Sans CJK SC',Arial,sans-serif">MCU</text><rect x="650" y="12" width="100" height="72" rx="16" fill="#22885A"/><rect x="675" y="30" width="50" height="7" rx="3" fill="white" opacity="1.0"/><rect x="675" y="43" width="50" height="7" rx="3" fill="white" opacity="0.8"/><rect x="675" y="56" width="50" height="7" rx="3" fill="white" opacity="0.6"/><text x="700" y="107" font-size="14" fill="#F5EDF4" font-weight="600" text-anchor="middle" font-family="'Segoe UI','Microsoft YaHei','Noto Sans CJK SC',Arial,sans-serif">FreeRTOS</text><rect x="30" y="122" width="100" height="72" rx="16" fill="#AD4C68"/><circle cx="80" cy="157" r="21" fill="none" stroke="white" stroke-width="4"/><circle cx="80" cy="157" r="7" fill="white"/><text x="80" y="217" font-size="14" fill="#F5EDF4" font-weight="600" text-anchor="middle" font-family="'Segoe UI','Microsoft YaHei','Noto Sans CJK SC',Arial,sans-serif">OpenCV</text><rect x="185" y="122" width="100" height="72" rx="16" fill="#238E58"/><text x="235" y="169" font-size="28" fill="white" font-weight="700" text-anchor="middle" font-family="'Segoe UI','Microsoft YaHei','Noto Sans CJK SC',Arial,sans-serif">Qt</text><text x="235" y="217" font-size="14" fill="#F5EDF4" font-weight="600" text-anchor="middle" font-family="'Segoe UI','Microsoft YaHei','Noto Sans CJK SC',Arial,sans-serif">Qt</text><rect x="340" y="122" width="100" height="72" rx="16" fill="#5E54A2"/><text x="390" y="169" font-size="28" fill="white" font-weight="700" text-anchor="middle" font-family="'Segoe UI','Microsoft YaHei','Noto Sans CJK SC',Arial,sans-serif">cm</text><text x="390" y="217" font-size="14" fill="#F5EDF4" font-weight="600" text-anchor="middle" font-family="'Segoe UI','Microsoft YaHei','Noto Sans CJK SC',Arial,sans-serif">CMake</text><rect x="495" y="122" width="100" height="72" rx="16" fill="#D4593E"/><text x="545" y="169" font-size="28" fill="white" font-weight="700" text-anchor="middle" font-family="'Segoe UI','Microsoft YaHei','Noto Sans CJK SC',Arial,sans-serif">git</text><text x="545" y="217" font-size="14" fill="#F5EDF4" font-weight="600" text-anchor="middle" font-family="'Segoe UI','Microsoft YaHei','Noto Sans CJK SC',Arial,sans-serif">Git</text><rect x="650" y="122" width="100" height="72" rx="16" fill="#A04864"/><rect x="681" y="139" width="38" height="38" rx="5" fill="none" stroke="white" stroke-width="3"/><path d="M688 132v7m0 38v7M674 146h7m38 0h7" stroke="white" stroke-width="3"/><path d="M700 132v7m0 38v7M674 158h7m38 0h7" stroke="white" stroke-width="3"/><path d="M712 132v7m0 38v7M674 170h7m38 0h7" stroke="white" stroke-width="3"/><text x="700" y="217" font-size="14" fill="#F5EDF4" font-weight="600" text-anchor="middle" font-family="'Segoe UI','Microsoft YaHei','Noto Sans CJK SC',Arial,sans-serif">ESP32</text></svg>
